<svg
	xmlns="http://www.w3.org/2000/svg"
	xmlns:xlink="http://www.w3.org/1999/xlink"
>
	<symbol
		id="icon-codepen"
		xmlns="http://www.w3.org/2000/svg"
		viewBox="0 0 1792 1792"
	>
		<path d="M216 1169l603 402v-359L485 989zm-62-144l193-129-193-129v258zm819 546l603-402-269-180-334 223v359zm-77-493l272-182-272-182-272 182zM485 803l334-223V221L216 623zm960 93l193 129V767zm-138-93l269-180-603-402v359zm485-180v546q0 41-34 64l-819 546q-21 13-43 13t-43-13L34 1233q-34-23-34-64V623q0-41 34-64L853 13q21-13 43-13t43 13l819 546q34 23 34 64z" />
	</symbol>

	<symbol
		id="icon-github"
		xmlns="http://www.w3.org/2000/svg"
		viewBox="0 0 16 16"
		fill-rule="evenodd"
		clip-rule="evenodd"
		stroke-linejoin="round"
		stroke-miterlimit="1.414"
	>
		<path d="M8 0a8 8 0 00-8 8 8 8 0 005.47 7.59c.4.075.547-.172.547-.385 0-.19-.007-.693-.01-1.36-2.226.483-2.695-1.073-2.695-1.073-.364-.924-.89-1.17-.89-1.17-.725-.496.056-.486.056-.486.803.056 1.225.824 1.225.824.714 1.223 1.873.87 2.33.665.072-.517.278-.87.507-1.07-1.777-.2-3.644-.888-3.644-3.953 0-.873.31-1.587.823-2.147-.09-.202-.36-1.015.07-2.117 0 0 .67-.215 2.2.82a7.67 7.67 0 012-.27 7.67 7.67 0 012 .27c1.52-1.035 2.19-.82 2.19-.82.43 1.102.16 1.915.08 2.117a3.1 3.1 0 01.82 2.147c0 3.073-1.87 3.75-3.65 3.947.28.24.54.73.54 1.48 0 1.07-.01 1.93-.01 2.19 0 .21.14.46.55.38A7.972 7.972 0 0016 8a8 8 0 00-8-8" />
	</symbol>

	<symbol
		id="icon-linkedin"
		xmlns="http://www.w3.org/2000/svg"
		viewBox="0 0 24 24"
	>
		<path d="M20.447 20.452h-3.554v-5.569c0-1.328-.027-3.037-1.852-3.037-1.853 0-2.136 1.445-2.136 2.939v5.667H9.351V9h3.414v1.561h.046c.477-.9 1.637-1.85 3.37-1.85 3.601 0 4.267 2.37 4.267 5.455v6.286zM5.337 7.433c-1.144 0-2.063-.926-2.063-2.065 0-1.138.92-2.063 2.063-2.063 1.14 0 2.064.925 2.064 2.063 0 1.139-.925 2.065-2.064 2.065zm1.782 13.019H3.555V9h3.564v11.452zM22.225 0H1.771C.792 0 0 .774 0 1.729v20.542C0 23.227.792 24 1.771 24h20.451C23.2 24 24 23.227 24 22.271V1.729C24 .774 23.2 0 22.222 0h.003z" />
	</symbol>

	<symbol
		id="icon-mastodon"
		xmlns="http://www.w3.org/2000/svg"
		viewBox="0 0 16 16"
	>
		<path d="M11.19 12.195c2.016-.24 3.77-1.475 3.99-2.603.348-1.778.32-4.339.32-4.339 0-3.47-2.286-4.488-2.286-4.488C12.062.238 10.083.017 8.027 0h-.05C5.92.017 3.942.238 2.79.765c0 0-2.285 1.017-2.285 4.488l-.002.662c-.004.64-.007 1.35.011 2.091.083 3.394.626 6.74 3.78 7.57 1.454.383 2.703.463 3.709.408 1.823-.1 2.847-.647 2.847-.647l-.06-1.317s-1.303.41-2.767.36c-1.45-.05-2.98-.156-3.215-1.928a3.614 3.614 0 0 1-.033-.496s1.424.346 3.228.428c1.103.05 2.137-.064 3.188-.189zm1.613-2.47H11.13v-4.08c0-.859-.364-1.295-1.091-1.295-.804 0-1.207.517-1.207 1.541v2.233H7.168V5.89c0-1.024-.403-1.541-1.207-1.541-.727 0-1.091.436-1.091 1.296v4.079H3.197V5.522c0-.859.22-1.541.66-2.046.456-.505 1.052-.764 1.793-.764.856 0 1.504.328 1.933.983L8 4.39l.417-.695c.429-.655 1.077-.983 1.934-.983.74 0 1.336.259 1.791.764.442.505.661 1.187.661 2.046v4.203z" />
	</symbol>

	<symbol
		id="icon-twitter"
		xmlns="http://www.w3.org/2000/svg"
		viewBox="0 0 24 24"
	>
		<path d="M23.44 4.83c-.8.37-1.5.38-2.22.02.93-.56.98-.96 1.32-2.02-.88.52-1.86.9-2.9 1.1-.82-.88-2-1.43-3.3-1.43-2.5 0-4.55 2.04-4.55 4.54 0 .36.03.7.1 1.04-3.77-.2-7.12-2-9.36-4.75-.4.67-.6 1.45-.6 2.3 0 1.56.8 2.95 2 3.77-.74-.03-1.44-.23-2.05-.57v.06c0 2.2 1.56 4.03 3.64 4.44-.67.2-1.37.2-2.06.08a4.57 4.57 0 004.25 3.16A9.05 9.05 0 011 18.46c2 1.3 4.4 2.04 6.97 2.04 8.35 0 12.92-6.92 12.92-12.93 0-.2 0-.4-.02-.6.9-.63 1.96-1.22 2.56-2.14z" />
	</symbol>
</svg>
