<svg xmlns="http://www.w3.org/2000/svg" xmlns:xlink="http://www.w3.org/1999/xlink">
    <symbol id="icon-codepen" xmlns="http://www.w3.org/2000/svg" viewBox="0 0 1792 1792">
        <path d="M216 1169l603 402v-359L485 989zm-62-144l193-129-193-129v258zm819 546l603-402-269-180-334 223v359zm-77-493l272-182-272-182-272 182zM485 803l334-223V221L216 623zm960 93l193 129V767zm-138-93l269-180-603-402v359zm485-180v546q0 41-34 64l-819 546q-21 13-43 13t-43-13L34 1233q-34-23-34-64V623q0-41 34-64L853 13q21-13 43-13t43 13l819 546q34 23 34 64z"/>
    </symbol>

    <symbol id="icon-github" xmlns="http://www.w3.org/2000/svg" viewBox="0 0 16 16" fill-rule="evenodd" clip-rule="evenodd" stroke-linejoin="round" stroke-miterlimit="1.414">
        <path d="M8 0a8 8 0 00-8 8 8 8 0 005.47 7.59c.4.075.547-.172.547-.385 0-.19-.007-.693-.01-1.36-2.226.483-2.695-1.073-2.695-1.073-.364-.924-.89-1.17-.89-1.17-.725-.496.056-.486.056-.486.803.056 1.225.824 1.225.824.714 1.223 1.873.87 2.33.665.072-.517.278-.87.507-1.07-1.777-.2-3.644-.888-3.644-3.953 0-.873.31-1.587.823-2.147-.09-.202-.36-1.015.07-2.117 0 0 .67-.215 2.2.82a7.67 7.67 0 012-.27 7.67 7.67 0 012 .27c1.52-1.035 2.19-.82 2.19-.82.43 1.102.16 1.915.08 2.117a3.1 3.1 0 01.82 2.147c0 3.073-1.87 3.75-3.65 3.947.28.24.54.73.54 1.48 0 1.07-.01 1.93-.01 2.19 0 .21.14.46.55.38A7.972 7.972 0 0016 8a8 8 0 00-8-8"/>
    </symbol>

    <symbol id="icon-linkedin" xmlns="http://www.w3.org/2000/svg" viewBox="0 0 24 24">
        <path d="M20.447 20.452h-3.554v-5.569c0-1.328-.027-3.037-1.852-3.037-1.853 0-2.136 1.445-2.136 2.939v5.667H9.351V9h3.414v1.561h.046c.477-.9 1.637-1.85 3.37-1.85 3.601 0 4.267 2.37 4.267 5.455v6.286zM5.337 7.433c-1.144 0-2.063-.926-2.063-2.065 0-1.138.92-2.063 2.063-2.063 1.14 0 2.064.925 2.064 2.063 0 1.139-.925 2.065-2.064 2.065zm1.782 13.019H3.555V9h3.564v11.452zM22.225 0H1.771C.792 0 0 .774 0 1.729v20.542C0 23.227.792 24 1.771 24h20.451C23.2 24 24 23.227 24 22.271V1.729C24 .774 23.2 0 22.222 0h.003z"/>
    </symbol>

    <symbol id="icon-twitter" xmlns="http://www.w3.org/2000/svg" viewBox="0 0 24 24">
        <path d="M23.44 4.83c-.8.37-1.5.38-2.22.02.93-.56.98-.96 1.32-2.02-.88.52-1.86.9-2.9 1.1-.82-.88-2-1.43-3.3-1.43-2.5 0-4.55 2.04-4.55 4.54 0 .36.03.7.1 1.04-3.77-.2-7.12-2-9.36-4.75-.4.67-.6 1.45-.6 2.3 0 1.56.8 2.95 2 3.77-.74-.03-1.44-.23-2.05-.57v.06c0 2.2 1.56 4.03 3.64 4.44-.67.2-1.37.2-2.06.08a4.57 4.57 0 004.25 3.16A9.05 9.05 0 011 18.46c2 1.3 4.4 2.04 6.97 2.04 8.35 0 12.92-6.92 12.92-12.93 0-.2 0-.4-.02-.6.9-.63 1.96-1.22 2.56-2.14z"/>
    </symbol>

    <symbol id="icon-sun" xmlns="http://www.w3.org/2000/svg" viewBox="0 0 24 24">
        <path d="M12 18c-3.309 0-6-2.691-6-6s2.691-6 6-6 6 2.691 6 6-2.691 6-6 6zm0-10c-2.206 0-4 1.794-4 4s1.794 4 4 4 4-1.794 4-4-1.794-4-4-4zm0-4a1 1 0 0 1-1-1V1a1 1 0 0 1 2 0v2a1 1 0 0 1-1 1zm0 20a1 1 0 0 1-1-1v-2a1 1 0 1 1 2 0v2a1 1 0 0 1-1 1zM5.64 6.64a.997.997 0 0 1-.707-.293l-1.42-1.42a.999.999 0 1 1 1.414-1.414l1.42 1.42A.999.999 0 0 1 5.64 6.64zm14.139 14.139a.997.997 0 0 1-.707-.293l-1.42-1.42a.999.999 0 1 1 1.414-1.414l1.42 1.42a.999.999 0 0 1-.707 1.707zM3 13H1a1 1 0 1 1 0-2h2a1 1 0 0 1 0 2zm20 0h-2a1 1 0 1 1 0-2h2a1 1 0 1 1 0 2zM4.22 20.779a.999.999 0 0 1-.707-1.707l1.42-1.42a.999.999 0 1 1 1.414 1.414l-1.42 1.42a.993.993 0 0 1-.707.293zM18.359 6.64a.999.999 0 0 1-.707-1.707l1.42-1.42a.999.999 0 1 1 1.414 1.414l-1.42 1.42a.997.997 0 0 1-.707.293z"/>
    </symbol>

    <symbol id="icon-moon" xmlns="http://www.w3.org/2000/svg" viewBox="0 0 24 24">
        <path d="M12.048 21.963c-.308 0-.618-.015-.93-.043-2.66-.246-5.064-1.513-6.771-3.567s-2.512-4.651-2.266-7.311a10.004 10.004 0 0 1 9.038-9.038 1 1 0 0 1 .896 1.589 6.008 6.008 0 0 0 1.258 8.392c2.078 1.536 5.055 1.536 7.133 0a1 1 0 0 1 1.591.896 9.951 9.951 0 0 1-9.949 9.082zM9.315 4.438a8.006 8.006 0 0 0-5.244 6.787 7.954 7.954 0 0 0 1.813 5.849 7.95 7.95 0 0 0 5.417 2.854 7.95 7.95 0 0 0 8.266-5.243 8.01 8.01 0 0 1-2.729.476 7.946 7.946 0 0 1-4.755-1.565C9.174 11.443 8.145 7.68 9.315 4.438z"/>
    </symbol>

    <symbol id="icon-sun-moon" xmlns="http://www.w3.org/2000/svg" viewBox="0 0 24 24">
        <path d="M12 4a1 1 0 0 1-1-1V1a1 1 0 0 1 2 0v2a1 1 0 0 1-1 1zM4.933 6.348a.997.997 0 0 0 1.414 0 .999.999 0 0 0 0-1.414l-1.42-1.42a.999.999 0 1 0-1.414 1.414l1.42 1.42zM1 13h2a1 1 0 1 0 0-2H1a1 1 0 0 0 0 2zm19.486-8.072l3.221-3.221A.999.999 0 1 0 22.293.293l-3.221 3.221-1.42 1.42-2.19 2.19A5.955 5.955 0 0 0 12 6c-3.309 0-6 2.691-6 6 0 1.258.406 2.453 1.124 3.462l-2.105 2.105c-.026.021-.058.03-.083.055s-.033.056-.055.082l-1.368 1.368-.001.002-3.219 3.219a.999.999 0 1 0 1.414 1.414l3.987-3.987a10.03 10.03 0 0 0 6.332 2.262c5.103-.001 9.473-3.902 9.951-9.081a1 1 0 0 0-1.591-.896 5.96 5.96 0 0 1-7.037.06l5.717-5.716 1.42-1.421zm-.945 9.78c-1.21 3.337-4.564 5.587-8.257 5.238a8.019 8.019 0 0 1-4.165-1.651l4.802-4.802c.05.038.093.082.144.12a7.955 7.955 0 0 0 7.476 1.095zm-10.979-.684A3.968 3.968 0 0 1 8 12c0-2.206 1.794-4 4-4a3.98 3.98 0 0 1 2.025.561l-5.463 5.463z"/>
    </symbol>
</svg>